<svg xmlns:xlink="http://www.w3.org/1999/xlink" xmlns="http://www.w3.org/2000/svg" width="136" height="20" viewBox="0 0 136 20" fill="none">
<g id="Logo">
<g id="Vector">
<path d="M40.7571 19.7421H38.6943V5.36193H40.7571V19.7421Z" fill="#FF4800"/>
<path d="M9.67931 5.36194H0V19.7421H2.26115V13.2958H9.24295V11.3917H2.26115V7.28591H9.67931V5.36194Z" fill="#FF4800"/>
<path d="M13.1669 7.64293V5.36194H11.1041V7.64293H13.1669Z" fill="#FF4800"/>
<path d="M13.1669 19.7421V9.07103H11.1041V19.7421H13.1669Z" fill="#FF4800"/>
<path d="M18.0073 10.6182C18.6222 9.56694 19.6933 8.87272 21.3594 8.87272C23.9379 8.87272 24.9296 10.5388 24.9296 13.0182V19.7421H22.8668V13.5735C22.8668 12.0463 22.6288 10.5983 20.6652 10.5983C18.8602 10.5983 18.0073 11.8678 18.0073 14.0099V19.7421H15.9445V9.07107H18.0073V10.6182Z" fill="#FF4800"/>
<path fill-rule="evenodd" clip-rule="evenodd" d="M34.0732 13.1371C29.9476 13.5537 26.8732 14.2677 26.8732 16.8661C26.8732 18.8099 28.5195 19.9999 30.6815 19.9999C32.4269 19.9999 33.617 19.4247 34.2517 18.3338C34.3112 19.028 34.3509 19.3256 34.4302 19.7421H36.4137C36.2154 18.79 36.1162 17.5008 36.1162 15.8942C36.1162 15.6337 36.1291 14.9209 36.1402 14.3091C36.1485 13.8491 36.1559 13.4461 36.1559 13.3355C36.1757 10.1421 34.6087 8.81317 31.8517 8.81317C29.4121 8.81317 27.5278 10.1619 27.3691 12.4429H29.4517C29.5311 11.114 30.3443 10.4 31.7724 10.4C33.0815 10.4 34.0732 11.0347 34.0732 12.919V13.1371ZM29.1146 16.8264C29.1146 15.4578 30.86 14.9818 34.1724 14.6644V15.438C34.1724 17.5603 32.8236 18.4132 31.1377 18.4132C29.8683 18.4132 29.1146 17.7983 29.1146 16.8264Z" fill="#FF4800"/>
<path fill-rule="evenodd" clip-rule="evenodd" d="M53.1143 13.6926C53.4316 13.6926 53.749 13.6926 54.0465 13.6728L57.1209 19.7422H59.6597L56.3473 13.2959C58.1523 12.7405 59.1242 11.5703 59.1242 9.50748C59.1242 6.17525 56.8035 5.36203 52.9358 5.36203H48.3738V19.7422H50.635V13.6926H53.1143ZM50.635 11.848V7.22649H53.1936C55.2366 7.22649 56.8035 7.56368 56.8035 9.54715C56.8035 11.5306 55.3556 11.848 53.2333 11.848H50.635Z" fill="#FF4800"/>
<path fill-rule="evenodd" clip-rule="evenodd" d="M71.1233 14.4463C71.1233 18.2942 68.4655 20 65.9267 20C63.3878 20 60.7498 18.2942 60.7498 14.4463C60.7498 10.5983 63.4076 8.87273 65.9267 8.87273C68.4456 8.87273 71.1233 10.5785 71.1233 14.4463ZM65.9267 18.2545C67.5134 18.2545 68.9415 17.0446 68.9415 14.4463C68.9415 11.8479 67.5134 10.6182 65.9267 10.6182C64.3399 10.6182 62.9316 11.7488 62.9316 14.4463C62.9316 17.1438 64.3795 18.2545 65.9267 18.2545Z" fill="#FF4800"/>
<path d="M76.5188 20C78.1255 20 79.1568 19.3256 79.7717 18.2347V19.7421H81.8544V9.07107H79.7916V14.8628C79.7916 16.9851 78.9585 18.2545 77.2131 18.2545C75.3486 18.2545 75.0908 16.8264 75.0908 15.2992V9.07107H73.0279V15.8545C73.0279 18.4529 73.9998 20 76.5188 20Z" fill="#FF4800"/>
<path d="M86.6746 10.6182C87.2895 9.56694 88.3605 8.87272 90.0266 8.87272C92.6051 8.87272 93.5969 10.5388 93.5969 13.0182V19.7421H91.5341V13.5735C91.5341 12.0463 91.2961 10.5983 89.3324 10.5983C87.5275 10.5983 86.6746 11.8678 86.6746 14.0099V19.7421H84.6118V9.07107H86.6746V10.6182Z" fill="#FF4800"/>
<path fill-rule="evenodd" clip-rule="evenodd" d="M105.438 5.36194H103.376V10.638C102.721 9.52723 101.63 8.87268 100.043 8.87268C97.564 8.87268 95.4417 10.9355 95.4417 14.4264C95.4417 17.9173 97.564 20 100.043 20C101.63 20 102.721 19.3454 103.376 18.2347V19.7421H105.438V5.36194ZM97.6433 14.4264C97.6433 12.0264 98.7937 10.5983 100.519 10.5983C102.106 10.5983 103.455 11.7884 103.455 14.4264C103.455 17.0644 102.106 18.2743 100.519 18.2743C98.7937 18.2743 97.6433 16.8264 97.6433 14.4264Z" fill="#FF4800"/>
<path d="M119.724 15.7455C118.838 15.7455 117.991 16.0959 117.363 16.724L114.719 19.3686C113.915 20.1719 112.54 19.6033 112.54 18.4661V2.57851C112.544 1.15372 113.697 0 115.122 0H133.94C135.077 0 135.646 1.37521 134.842 2.17851L130.482 6.52893C129.738 7.26942 129.738 8.47603 130.482 9.21653L134.842 13.5669C135.649 14.3702 135.077 15.7455 133.94 15.7455H119.724Z" fill="#FF4800"/>
</g>
<g id="Union">
<path d="M124.882 11.6159H126.314V4.35596H124.882V11.6159Z" fill="white"/>
<path fill-rule="evenodd" clip-rule="evenodd" d="M120.793 4.35596H119.352L116.648 11.6159H118.11L118.62 10.1432H121.444L121.954 11.6159H123.508L120.793 4.35596ZM120.035 6.10827L121.035 8.97306H119.035L120.035 6.10827Z" fill="white"/>
</g>
</g>
</svg>